Normalized EMG Linear Envelopes
nRows=117
nColumns=4

endheader
time	 med_gas_r	  soleus_r	 tib_ant_r	
3.75	  0.006061	  0.005927	  0.001483	
3.8125	  0.007564	  0.005527	  0.001485	
3.875	  0.008424	  0.005214	  0.001513	
3.9375	  0.008580	  0.005026	  0.001564	
4	  0.008407	  0.004968	  0.001613	
4.0625	  0.008247	  0.005033	  0.001638	
4.125	  0.008255	  0.005164	  0.001638	
4.1875	  0.008427	  0.005304	  0.001624	
4.25	  0.008526	  0.005487	  0.001615	
4.3125	  0.008287	  0.005806	  0.001625	
4.375	  0.007794	  0.006312	  0.001659	
4.4375	  0.007381	  0.006940	  0.001702	
4.5	  0.007213	  0.007408	  0.001716	
4.5625	  0.007242	  0.006987	  0.001632	
4.625	  0.007269	  0.004385	  0.001349	
4.6875	  0.006753	 -0.001893	  0.000777	
4.75	  0.004893	 -0.012078	  0.000001	
4.8125	  0.001358	 -0.022109	 -0.000457	
4.875	 -0.002704	 -0.020045	  0.000572	
4.9375	 -0.003489	  0.015740	  0.004870	
5	  0.006381	  0.110896	  0.014036	
5.0625	  0.036541	  0.274125	  0.027389	
5.125	  0.096235	  0.474704	  0.040802	
5.1875	  0.193279	  0.654882	  0.049624	
5.25	  0.329422	  0.771035	  0.052709	
5.3125	  0.488071	  0.811615	  0.051949	
5.375	  0.629338	  0.786521	  0.049070	
5.4375	  0.709714	  0.720252	  0.044795	
5.5	  0.716951	  0.641339	  0.040108	
5.5625	  0.683986	  0.565145	  0.036739	
5.625	  0.661657	  0.498808	  0.036241	
5.6875	  0.680067	  0.451688	  0.038606	
5.75	  0.733679	  0.423360	  0.042168	
5.8125	  0.792409	  0.402386	  0.045704	
5.875	  0.827518	  0.387443	  0.049647	
5.9375	  0.829217	  0.388793	  0.054308	
6	  0.802582	  0.410906	  0.058908	
6.0625	  0.760302	  0.450117	  0.063002	
6.125	  0.719755	  0.499593	  0.066841	
6.1875	  0.693561	  0.544399	  0.070284	
6.25	  0.681076	  0.563946	  0.072506	
6.3125	  0.673134	  0.551031	  0.072639	
6.375	  0.662280	  0.521560	  0.070629	
6.4375	  0.647292	  0.499643	  0.067379	
6.5	  0.633756	  0.495669	  0.063854	
6.5625	  0.631397	  0.498655	  0.060585	
6.625	  0.645022	  0.491922	  0.057919	
6.6875	  0.668691	  0.476315	  0.056143	
6.75	  0.693290	  0.466035	  0.055471	
6.8125	  0.715139	  0.463688	  0.055695	
6.875	  0.731596	  0.460006	  0.055671	
6.9375	  0.735611	  0.453017	  0.054023	
7	  0.722548	  0.446172	  0.050862	
7.0625	  0.698995	  0.437746	  0.048020	
7.125	  0.679989	  0.429291	  0.047250	
7.1875	  0.676362	  0.427203	  0.048714	
7.25	  0.684499	  0.426659	  0.051067	
7.3125	  0.689928	  0.420154	  0.052619	
7.375	  0.683656	  0.418158	  0.052801	
7.4375	  0.673451	  0.432710	  0.052528	
7.5	  0.671033	  0.456198	  0.052922	
7.5625	  0.669119	  0.472769	  0.054075	
7.625	  0.648672	  0.471773	  0.055499	
7.6875	  0.611190	  0.452634	  0.057446	
7.75	  0.581424	  0.429333	  0.060827	
7.8125	  0.574819	  0.416196	  0.065435	
7.875	  0.584287	  0.408771	  0.069236	
7.9375	  0.600715	  0.395441	  0.070287	
8	  0.625091	  0.377279	  0.068705	
8.0625	  0.656168	  0.361750	  0.066020	
8.125	  0.680316	  0.352939	  0.063467	
8.1875	  0.681067	  0.356230	  0.061436	
8.25	  0.658735	  0.377111	  0.059657	
8.3125	  0.634537	  0.412212	  0.057670	
8.375	  0.629719	  0.445272	  0.055530	
8.4375	  0.648575	  0.452793	  0.053847	
8.5	  0.683971	  0.424582	  0.053068	
8.5625	  0.724993	  0.378569	  0.052963	
8.625	  0.756438	  0.342938	  0.052900	
8.6875	  0.764657	  0.331358	  0.052757	
8.75	  0.749886	  0.342822	  0.053165	
8.8125	  0.726253	  0.368189	  0.054380	
8.875	  0.706690	  0.391558	  0.055509	
8.9375	  0.691782	  0.399931	  0.055337	
9	  0.674949	  0.393221	  0.053743	
9.0625	  0.656403	  0.380722	  0.052000	
9.125	  0.645176	  0.371998	  0.051261	
9.1875	  0.644555	  0.372751	  0.051296	
9.25	  0.645902	  0.386103	  0.051314	
9.3125	  0.639753	  0.411697	  0.050932	
9.375	  0.625278	  0.439341	  0.049940	
9.4375	  0.610487	  0.450915	  0.048403	
9.5	  0.604433	  0.437948	  0.047227	
9.5625	  0.606692	  0.411430	  0.047622	
9.625	  0.609259	  0.387472	  0.049573	
9.6875	  0.608883	  0.373041	  0.051701	
9.75	  0.609881	  0.369513	  0.053005	
9.8125	  0.613889	  0.376396	  0.053484	
9.875	  0.612821	  0.385309	  0.052907	
9.9375	  0.594201	  0.378259	  0.050461	
10	  0.549798	  0.340291	  0.045726	
10.0625	  0.480245	  0.274996	  0.039199	
10.125	  0.397317	  0.202826	  0.031996	
10.1875	  0.318389	  0.143654	  0.025261	
10.25	  0.252172	  0.103325	  0.019617	
10.3125	  0.193818	  0.075450	  0.015083	
10.375	  0.136719	  0.053073	  0.011494	
10.4375	  0.083279	  0.035640	  0.008743	
10.5	  0.041830	  0.025147	  0.006719	
10.5625	  0.017114	  0.020429	  0.005337	
10.625	  0.006631	  0.017830	  0.004515	
10.6875	  0.004348	  0.015567	  0.004038	
10.75	  0.005149	  0.014557	  0.003654	
10.8125	  0.006331	  0.014924	  0.003276	
10.875	  0.007050	  0.014161	  0.002974	
10.9375	  0.007297	  0.009664	  0.002820	
11	  0.007229	  0.001840	  0.002786	
